<svg xmlns="http://www.w3.org/2000/svg" viewBox="0 0 675.61 636.81"><defs><style>.cls-1{fill:#231f20;}.cls-2{fill:#f1f2f2;}.cls-3{fill:#ccc;}.cls-4{fill:#f15a29;}.cls-5{fill:#cc2322;}</style></defs><g id="Layer_2" data-name="Layer 2"><g id="Black_Backer_P" data-name="Black Backer P"><path class="cls-1" d="M588.08,145.88C552.85,0,383.85,0,383.85,0H232.11a52.48,52.48,0,0,0-52.48,52.48V456.3c0,94.81,3.28,185.92,185.85,180.26h2.43c6.08,0,15.87-4.62,15.87-16.37l.07-212.87c41.1.35,286.43,11.68,291.76-203.09V157.12a11.25,11.25,0,0,0-11.25-11.24Z"/></g><g id="Tail"><path class="cls-1" d="M244.28,0H20.93A20.93,20.93,0,0,0,0,20.93V81.5c0,326,244.49,326,244.49,326V326C81.5,326,81.5,81.5,81.5,81.5H244.28Z"/><path class="cls-2" d="M246.79,341.31C187.23,341.31,61.84,308.17,58.23,69A10.49,10.49,0,0,1,68.7,58.35H246.79"/></g><g id="Back_Wing" data-name="Back Wing"><path class="cls-1" d="M245.5,147l-1,354c0,11.74-7.27,16.38-13.34,16.38h-2.44c-88.22,0-107.85-85.46-107.85-180.27V199.47a53.13,53.13,0,0,1,53.68-53.13Z"/><path class="cls-2" d="M247.13,289.16V455.77c0,1.74-1.09,3.14-2.43,3.14h-3.38c-34.3,0-62.1-35.83-62.1-80V122.26h0a63.91,63.91,0,0,1,63.91-63.91h2.8"/><path class="cls-3" d="M247.07,250.23v206a2.77,2.77,0,0,1-3,2.8A62.73,62.73,0,0,1,231.83,458c-11.19-2.05-15.31-5.7-15.31-5.7,0-2.38,0-3.34,0-11.4V264.48h0a14.19,14.19,0,0,1,14.15-14.19Z"/></g><g id="Color_P" data-name="Color P"><path class="cls-4" d="M385,350.1V204.23h226.7a7.34,7.34,0,0,1,7.5,7C619.38,241.23,612.72,350.1,385,350.1Z"/><path class="cls-5" d="M385.05,321.34C518,321.34,589,272,589,204.47l22.59-.19a7.35,7.35,0,0,1,7.56,7.12c0,29.61-7.67,142.2-234.12,138.7"/><path class="cls-2" d="M326.66,145.88V575.07a3.13,3.13,0,0,1-3.14,3.14h-4.36a80,80,0,0,1-80-80l-1.2-439.84H385c116.7,0,133,88.15,133,88.15"/><path class="cls-3" d="M518,146.5s-3.75-18-14.54-33.13H307a10.9,10.9,0,0,0-10.91,10.91V559.7c0,8.06,0,12.77,0,15.14,0,0,3.54,1.63,14.84,3a72.42,72.42,0,0,0,12.57.41,3.13,3.13,0,0,0,3.14-3.14V151.13a5.23,5.23,0,0,1,5.25-5.24Z"/></g></g></svg>